<svg width="418" height="403" viewBox="0 0 418 403" fill="none" xmlns="http://www.w3.org/2000/svg">
<path d="M319.72 17.5396H61.3869C55.3946 17.5396 50.5369 22.3973 50.5369 28.3896V364.741C50.5369 370.733 55.3946 375.59 61.3869 375.59H319.72C325.713 375.59 330.57 370.733 330.57 364.741V28.3896C330.57 22.3973 325.713 17.5396 319.72 17.5396Z" fill="#FF1053" stroke="black" stroke-miterlimit="10"/>
<path d="M322.954 20.7705C324.994 22.8135 326.14 25.5825 326.14 28.4695L326.133 358.075C326.133 360.96 324.987 363.727 322.947 365.767C320.907 367.807 318.14 368.953 315.255 368.953L59.2926 368.953C56.4075 368.953 53.6406 367.807 51.6005 365.767C49.5604 363.727 48.4142 360.96 48.4142 358.075L48.4142 345.061C48.4153 342.573 49.2688 340.16 50.8324 338.224L306.835 21.599C307.796 20.4211 308.994 19.4577 310.35 18.7708C311.707 18.0838 313.192 17.6886 314.711 17.6106C316.229 17.5325 317.747 17.7734 319.167 18.3176C320.587 18.8618 321.877 19.6974 322.954 20.7705Z" fill="white" stroke="black" stroke-miterlimit="10"/>
<path d="M306.42 1.37377H53.6787C47.6864 1.37377 42.8286 6.23151 42.8286 12.2238V348.575C42.8286 354.567 47.6864 359.425 53.6787 359.425H306.42C312.413 359.425 317.27 354.567 317.27 348.575V12.2238C317.27 6.23151 312.413 1.37377 306.42 1.37377Z" fill="#FF1053" stroke="black" stroke-miterlimit="10"/>
<path opacity="0.25" d="M317.262 8.22157L317.262 351.844C317.248 353.663 316.513 355.403 315.219 356.682C313.925 357.96 312.177 358.675 310.358 358.667L49.7411 358.688C47.9156 358.698 46.1608 357.982 44.8624 356.699C43.564 355.416 42.8281 353.67 42.8166 351.844L42.8233 347.217L303.494 347.223C305.319 347.233 307.074 346.518 308.373 345.235C309.671 343.951 310.407 342.205 310.418 340.38L310.445 1.39141C312.25 1.40984 313.975 2.13578 315.25 3.41309C316.525 4.69039 317.247 6.41702 317.262 8.22157Z" fill="black"/>
<path d="M272.117 55.0785H87.971C84.1515 55.0785 81.0552 58.1748 81.0552 61.9943V136.63C81.0552 140.449 84.1515 143.546 87.971 143.546H272.117C275.936 143.546 279.032 140.449 279.032 136.63V61.9943C279.032 58.1748 275.936 55.0785 272.117 55.0785Z" fill="white" stroke="black" stroke-miterlimit="10"/>
<path opacity="0.25" d="M279.049 61.9669L279.043 136.593C279.043 137.502 278.864 138.401 278.517 139.241C278.169 140.08 277.66 140.843 277.017 141.485C276.375 142.128 275.612 142.637 274.773 142.985C273.933 143.333 273.034 143.511 272.125 143.511L87.967 143.538C86.4943 143.535 85.0609 143.062 83.875 142.189C82.6891 141.316 81.8126 140.087 81.3726 138.681C82.1741 139.001 83.029 139.166 83.8918 139.166L268.036 139.166C269.869 139.165 271.626 138.437 272.922 137.141C274.218 135.845 274.946 134.088 274.947 132.255L274.947 57.6223C274.945 56.9211 274.838 56.2241 274.631 55.5544C275.928 56.0537 277.043 56.933 277.832 58.0773C278.62 59.2216 279.045 60.5773 279.049 61.9669Z" fill="black"/>
</svg>
