<svg width="304" height="256" viewBox="0 0 304 256" fill="none" xmlns="http://www.w3.org/2000/svg">
<path d="M291.68 17.99H20.49C14.1995 17.99 9.09998 23.0895 9.09998 29.38V382.47C9.09998 388.761 14.1995 393.86 20.49 393.86H291.68C297.97 393.86 303.07 388.761 303.07 382.47V29.38C303.07 23.0895 297.97 17.99 291.68 17.99Z" fill="#0B3C49" stroke="black" stroke-miterlimit="10"/>
<path d="M295.08 21.39C297.22 23.5343 298.421 26.4404 298.42 29.47V375.47C298.42 376.97 298.125 378.455 297.551 379.84C296.977 381.226 296.136 382.485 295.075 383.545C294.015 384.606 292.756 385.447 291.37 386.021C289.985 386.595 288.5 386.89 287 386.89H18.23C16.7303 386.89 15.2453 386.595 13.8598 386.021C12.4742 385.447 11.2153 384.606 10.1549 383.545C9.09442 382.485 8.25322 381.226 7.67931 379.84C7.1054 378.455 6.81002 376.97 6.81002 375.47V361.81C6.80528 359.196 7.7024 356.66 9.35002 354.63L278.08 22.29C279.086 21.0374 280.346 20.0114 281.776 19.2788C283.206 18.5462 284.774 18.1236 286.379 18.0387C287.983 17.9537 289.588 18.2083 291.087 18.7858C292.586 19.3633 293.947 20.2507 295.08 21.39Z" fill="white" stroke="black" stroke-miterlimit="10"/>
<path d="M277.71 1.01999H12.39C6.09948 1.01999 1 6.11947 1 12.41V365.5C1 371.791 6.09948 376.89 12.39 376.89H277.71C284.001 376.89 289.1 371.791 289.1 365.5V12.41C289.1 6.11947 284.001 1.01999 277.71 1.01999Z" fill="#0B3C49" stroke="black" stroke-miterlimit="10"/>
<path opacity="0.25" d="M289.08 8.21002V368.94C289.075 369.889 288.882 370.828 288.514 371.702C288.146 372.577 287.609 373.37 286.934 374.037C286.258 374.704 285.458 375.231 284.579 375.589C283.7 375.946 282.759 376.127 281.81 376.12H8.25999C7.31185 376.125 6.37196 375.944 5.49397 375.586C4.61599 375.228 3.8171 374.7 3.14294 374.034C2.46879 373.367 1.93255 372.574 1.56487 371.7C1.19718 370.826 1.00524 369.888 1 368.94V364.08H274.65C276.566 364.091 278.408 363.34 279.771 361.994C281.134 360.648 281.907 358.816 281.92 356.9V1C283.823 1.01581 285.642 1.78212 286.983 3.13226C288.324 4.48241 289.077 6.30724 289.08 8.21002Z" fill="black"/>
<path d="M241.71 57.39H48.4C44.3904 57.39 41.14 60.6404 41.14 64.65V143C41.14 147.01 44.3904 150.26 48.4 150.26H241.71C245.72 150.26 248.97 147.01 248.97 143V64.65C248.97 60.6404 245.72 57.39 241.71 57.39Z" fill="white" stroke="black" stroke-miterlimit="10"/>
<path opacity="0.25" d="M248.96 64.66V143C248.96 144.926 248.195 146.774 246.834 148.137C245.473 149.5 243.626 150.267 241.7 150.27H48.4C46.8524 150.268 45.3459 149.773 44.0995 148.855C42.8531 147.938 41.9319 146.647 41.47 145.17C42.3123 145.509 43.2121 145.682 44.12 145.68H237.42C238.373 145.68 239.317 145.492 240.198 145.127C241.079 144.763 241.879 144.228 242.554 143.554C243.228 142.879 243.762 142.079 244.127 141.198C244.492 140.317 244.68 139.373 244.68 138.42V60.08C244.678 59.3444 244.567 58.613 244.35 57.91C245.709 58.4398 246.876 59.3678 247.699 60.5722C248.521 61.7767 248.961 63.2014 248.96 64.66Z" fill="black"/>
</svg>
