<svg width="354" height="576" viewBox="0 0 354 576" fill="none" xmlns="http://www.w3.org/2000/svg">
<path d="M336.847 25.7917H-59.5142C-68.7081 25.7917 -76.1613 33.2416 -76.1613 42.4315V558.265C-76.1613 567.455 -68.7081 574.905 -59.5142 574.905H336.847C346.041 574.905 353.494 567.455 353.494 558.265V42.4315C353.494 33.2416 346.041 25.7917 336.847 25.7917Z" fill="#5E2BFF" stroke="black" stroke-miterlimit="10"/>
<path d="M341.816 30.7734C344.944 33.906 346.7 38.1517 346.698 42.5776V548.053C346.698 552.478 344.939 556.722 341.809 559.85C338.679 562.979 334.433 564.737 330.007 564.737H-62.8173C-67.2441 564.737 -71.4895 562.979 -74.6197 559.85C-77.7498 556.722 -79.5084 552.478 -79.5084 548.053V528.097C-79.5129 524.278 -78.202 520.574 -75.796 517.608L317.028 32.0736C318.5 30.2542 320.338 28.7645 322.423 27.7014C324.509 26.6383 326.794 26.0255 329.132 25.9029C331.47 25.7803 333.807 26.1506 335.992 26.9897C338.178 27.8288 340.162 29.1179 341.816 30.7734Z" fill="white" stroke="black" stroke-miterlimit="10"/>
<path d="M316.429 1H-71.3528C-80.5468 1 -88 8.44989 -88 17.6398V533.474C-88 542.663 -80.5468 550.113 -71.3528 550.113H316.429C325.623 550.113 333.076 542.663 333.076 533.474V17.6398C333.076 8.44989 325.623 1 316.429 1Z" fill="#5E2BFF" stroke="black" stroke-miterlimit="10"/>
<path opacity="0.25" d="M333.076 11.504V538.499C333.068 539.885 332.787 541.257 332.249 542.534C331.711 543.812 330.926 544.971 329.939 545.946C328.952 546.92 327.783 547.69 326.498 548.212C325.213 548.734 323.837 548.998 322.45 548.988H-77.389C-78.7748 548.996 -80.1485 548.731 -81.4318 548.208C-82.715 547.685 -83.8826 546.914 -84.868 545.94C-85.8533 544.966 -86.637 543.808 -87.1744 542.531C-87.7118 541.254 -87.9923 539.884 -88 538.499V531.399H311.956C314.756 531.414 317.448 530.319 319.44 528.352C321.433 526.385 322.563 523.708 322.582 520.91V1.01462C325.36 1.02996 328.021 2.13999 329.985 4.10381C331.95 6.06763 333.061 8.72674 333.076 11.504Z" fill="black"/>
<path d="M263.812 83.3516H-18.722C-24.5822 83.3516 -29.3329 88.1002 -29.3329 93.9579V208.42C-29.3329 214.278 -24.5822 219.027 -18.722 219.027H263.812C269.673 219.027 274.423 214.278 274.423 208.42V93.9579C274.423 88.1002 269.673 83.3516 263.812 83.3516Z" fill="white" stroke="black" stroke-miterlimit="10"/>
<path opacity="0.25" d="M274.409 93.9725V208.42C274.409 211.235 273.291 213.934 271.302 215.925C269.312 217.917 266.613 219.037 263.798 219.041H-18.722C-20.9838 219.039 -23.1858 218.315 -25.0074 216.975C-26.8291 215.634 -28.1755 213.748 -28.8506 211.591C-27.6195 212.086 -26.3044 212.339 -24.9775 212.336H257.542C260.357 212.336 263.056 211.218 265.045 209.229C267.035 207.24 268.153 204.542 268.153 201.729V87.2815C268.15 86.2068 267.988 85.1385 267.671 84.1113C269.657 84.8854 271.363 86.2409 272.565 88.0005C273.768 89.7601 274.41 91.8417 274.409 93.9725Z" fill="black"/>
</svg>
