<svg width="307" height="571" viewBox="0 0 307 571" fill="none" xmlns="http://www.w3.org/2000/svg">
<path d="M421.91 25.5729H29.222C20.1132 25.5729 12.729 32.957 12.729 42.0658V553.347C12.729 562.456 20.1132 569.84 29.222 569.84H421.91C431.019 569.84 438.403 562.456 438.403 553.347V42.0658C438.403 32.957 431.019 25.5729 421.91 25.5729Z" fill="#2E0219" stroke="black" stroke-miterlimit="10"/>
<path d="M426.834 30.4962C429.934 33.6014 431.678 37.8081 431.685 42.1961V543.211C431.685 545.384 431.256 547.535 430.424 549.542C429.592 551.55 428.373 553.373 426.836 554.909C425.299 556.445 423.474 557.663 421.466 558.493C419.458 559.323 417.306 559.749 415.134 559.747H25.9495C23.7779 559.747 21.6276 559.32 19.6213 558.488C17.615 557.657 15.792 556.439 14.2565 554.904C12.7209 553.368 11.5029 551.545 10.6718 549.539C9.84081 547.533 9.41309 545.383 9.41309 543.211V523.416C9.41565 519.632 10.7136 515.963 13.091 513.02L402.275 31.7703C403.736 29.9699 405.558 28.4964 407.625 27.4453C409.691 26.3942 411.956 25.789 414.271 25.6688C416.586 25.5487 418.901 25.9164 421.065 26.748C423.229 27.5795 425.195 28.8565 426.834 30.4962Z" fill="white" stroke="black" stroke-miterlimit="10"/>
<path d="M401.681 1H17.493C8.38416 1 1 8.38414 1 17.4929V528.774C1 537.883 8.38416 545.267 17.493 545.267H401.681C410.79 545.267 418.174 537.883 418.174 528.774V17.4929C418.174 8.38414 410.79 1 401.681 1Z" fill="#2E0219" stroke="black" stroke-miterlimit="10"/>
<path opacity="0.25" d="M418.189 11.4112V533.755C418.181 535.13 417.903 536.49 417.37 537.757C416.837 539.025 416.059 540.175 415.082 541.141C414.104 542.108 412.946 542.873 411.673 543.392C410.4 543.911 409.037 544.174 407.662 544.167H11.5271C8.75297 544.178 6.0877 543.088 4.11661 541.136C2.14552 539.184 1.02979 536.529 1.01447 533.755V526.733H397.265C398.64 526.74 400.003 526.477 401.276 525.958C402.549 525.439 403.707 524.674 404.685 523.707C405.662 522.74 406.44 521.591 406.973 520.323C407.506 519.056 407.785 517.696 407.792 516.321V1.01447C410.545 1.02967 413.18 2.12999 415.127 4.07648C417.073 6.02297 418.174 8.65853 418.189 11.4112Z" fill="black"/>
<path d="M349.553 82.6393H69.6361C63.8302 82.6393 59.1235 87.346 59.1235 93.152V206.604C59.1235 212.41 63.8302 217.117 69.6361 217.117H349.553C355.359 217.117 360.065 212.41 360.065 206.604V93.152C360.065 87.346 355.359 82.6393 349.553 82.6393Z" fill="white" stroke="black" stroke-miterlimit="10"/>
<path opacity="0.25" d="M360.065 93.152V206.59C360.065 209.379 358.958 212.055 356.987 214.029C355.016 216.002 352.342 217.113 349.553 217.117H69.6506C67.4097 217.114 65.2282 216.397 63.4234 215.068C61.6186 213.74 60.2847 211.871 59.6158 209.732C60.8355 210.223 62.1384 210.473 63.4531 210.471H343.355C346.143 210.471 348.817 209.363 350.789 207.391C352.76 205.42 353.868 202.746 353.868 199.958V86.5201C353.865 85.4549 353.704 84.3959 353.39 83.3778C355.358 84.145 357.048 85.4887 358.239 87.2328C359.43 88.9769 360.067 91.04 360.065 93.152Z" fill="black"/>
</svg>
