<svg width="553" height="983" viewBox="0 0 553 983" fill="none" xmlns="http://www.w3.org/2000/svg">
<g clip-path="url(#clip0_33_598)">
<rect width="553" height="983" fill="white"/>
<path d="M-219 722.149C-63.4146 448.324 40.4181 410.935 107.446 430.445C201.436 457.834 228.022 598.674 311.168 592.505C424.098 584.124 437.528 319.84 554.304 293.982C670.074 268.341 800.436 496.37 849.214 696.557C871.521 788.105 889.652 862.493 871.714 938.79C810.037 1201.41 366.393 1294.16 48.8983 1054.79C-84.699 954.046 -171.191 813.2 -219 722.149Z" fill="#D9E5D6" stroke="black" stroke-miterlimit="10"/>
<path d="M116.816 664.201H-46.2787C-50.0618 664.201 -53.1287 667.267 -53.1287 671.048V883.304C-53.1287 887.085 -50.0618 890.151 -46.2787 890.151H116.816C120.599 890.151 123.666 887.085 123.666 883.304V671.048C123.666 667.267 120.599 664.201 116.816 664.201Z" fill="#5E2BFF" stroke="black" stroke-miterlimit="10"/>
<path d="M118.861 666.251C120.148 667.54 120.87 669.287 120.87 671.108V879.102C120.87 880.923 120.146 882.669 118.858 883.956C117.57 885.244 115.823 885.967 114.002 885.967H-47.6378C-49.4593 885.967 -51.2063 885.244 -52.4943 883.956C-53.7823 882.669 -54.5059 880.923 -54.5059 879.102V870.89C-54.5077 869.319 -53.9683 867.795 -52.9783 866.574L108.661 666.786C109.267 666.038 110.023 665.425 110.881 664.987C111.739 664.55 112.68 664.298 113.642 664.247C114.604 664.197 115.565 664.349 116.465 664.694C117.364 665.04 118.18 665.57 118.861 666.251V666.251Z" fill="white" stroke="black" stroke-miterlimit="10"/>
<path d="M108.415 654H-51.15C-54.9332 654 -58 657.065 -58 660.847V873.102C-58 876.884 -54.9332 879.949 -51.15 879.949H108.415C112.198 879.949 115.265 876.884 115.265 873.102V660.847C115.265 657.065 112.198 654 108.415 654Z" fill="#5E2BFF" stroke="black" stroke-miterlimit="10"/>
<path opacity="0.25" d="M115.265 658.322V875.17C115.261 875.741 115.146 876.305 114.924 876.831C114.703 877.357 114.38 877.834 113.974 878.234C113.568 878.635 113.086 878.952 112.558 879.167C112.029 879.382 111.463 879.49 110.892 879.486H-53.6338C-54.204 879.49 -54.7693 879.38 -55.2973 879.165C-55.8253 878.95 -56.3058 878.633 -56.7112 878.232C-57.1167 877.831 -57.4392 877.355 -57.6603 876.829C-57.8814 876.304 -57.9968 875.74 -58 875.17V872.249H106.574C107.726 872.255 108.834 871.804 109.654 870.995C110.474 870.186 110.939 869.084 110.946 867.933V654.006C112.09 654.012 113.184 654.469 113.993 655.277C114.801 656.085 115.258 657.179 115.265 658.322V658.322Z" fill="black"/>
<path d="M86.764 687.886H-29.4934C-31.9048 687.886 -33.8596 689.84 -33.8596 692.25V739.35C-33.8596 741.76 -31.9048 743.714 -29.4934 743.714H86.764C89.1754 743.714 91.1302 741.76 91.1302 739.35V692.25C91.1302 689.84 89.1754 687.886 86.764 687.886Z" fill="white" stroke="black" stroke-miterlimit="10"/>
<path opacity="0.25" d="M91.124 692.256V739.349C91.124 740.507 90.6641 741.618 89.8455 742.437C89.0268 743.257 87.9163 743.718 86.7578 743.72H-29.4936C-30.4243 743.719 -31.3304 743.421 -32.08 742.869C-32.8296 742.318 -33.3836 741.542 -33.6614 740.654C-33.1548 740.858 -32.6137 740.962 -32.0677 740.96H84.1838C85.3417 740.96 86.4523 740.501 87.2711 739.682C88.0899 738.864 88.5499 737.754 88.5499 736.596V689.503C88.5486 689.061 88.4817 688.621 88.3515 688.199C89.1687 688.517 89.8707 689.075 90.3654 689.799C90.8601 690.523 91.1245 691.379 91.124 692.256V692.256Z" fill="black"/>
<path d="M194.517 804.991H82.928C80.3395 804.991 78.2412 807.089 78.2412 809.678V954.967C78.2412 957.556 80.3395 959.654 82.928 959.654H194.517C197.106 959.654 199.204 957.556 199.204 954.967V809.678C199.204 807.089 197.106 804.991 194.517 804.991Z" fill="#0B3C49" stroke="black" stroke-miterlimit="10"/>
<path d="M195.917 806.39C196.797 807.273 197.292 808.468 197.291 809.715V952.087C197.291 952.704 197.169 953.315 196.933 953.885C196.697 954.456 196.351 954.974 195.915 955.41C195.478 955.846 194.96 956.192 194.39 956.429C193.82 956.665 193.209 956.786 192.592 956.786H81.9982C81.3811 956.786 80.77 956.665 80.1999 956.429C79.6298 956.192 79.1118 955.846 78.6754 955.41C78.2391 954.974 77.8929 954.456 77.6568 953.885C77.4206 953.315 77.2991 952.704 77.2991 952.087V946.466C77.2971 945.391 77.6663 944.347 78.3442 943.512L188.921 806.761C189.335 806.245 189.854 805.823 190.442 805.521C191.031 805.22 191.676 805.046 192.336 805.011C192.996 804.976 193.657 805.081 194.274 805.319C194.89 805.556 195.45 805.921 195.917 806.39V806.39Z" fill="white" stroke="black" stroke-miterlimit="10"/>
<path d="M188.769 798.008H79.5952C77.0068 798.008 74.9084 800.107 74.9084 802.695V947.985C74.9084 950.573 77.0068 952.671 79.5952 952.671H188.769C191.358 952.671 193.456 950.573 193.456 947.985V802.695C193.456 800.107 191.358 798.008 188.769 798.008Z" fill="#0B3C49" stroke="black" stroke-miterlimit="10"/>
<path opacity="0.25" d="M193.448 800.967V949.4C193.446 949.791 193.366 950.177 193.215 950.537C193.063 950.897 192.842 951.223 192.565 951.498C192.287 951.772 191.957 951.989 191.596 952.136C191.234 952.283 190.847 952.357 190.456 952.355H77.8958C77.5056 952.357 77.1189 952.282 76.7576 952.135C76.3964 951.987 76.0676 951.77 75.7902 951.496C75.5128 951.222 75.2922 950.895 75.1409 950.536C74.9896 950.176 74.9106 949.79 74.9084 949.4V947.4H187.51C188.298 947.405 189.056 947.096 189.617 946.542C190.178 945.988 190.496 945.234 190.502 944.446V798C191.284 798.007 192.033 798.322 192.585 798.877C193.137 799.433 193.447 800.184 193.448 800.967Z" fill="black"/>
<path d="M173.956 821.203H94.4126C92.7628 821.203 91.4253 822.541 91.4253 824.191V856.43C91.4253 858.08 92.7628 859.418 94.4126 859.418H173.956C175.606 859.418 176.943 858.08 176.943 856.43V824.191C176.943 822.541 175.606 821.203 173.956 821.203Z" fill="white" stroke="black" stroke-miterlimit="10"/>
<path opacity="0.25" d="M176.939 824.195V856.43C176.939 857.223 176.624 857.983 176.064 858.544C175.504 859.105 174.744 859.421 173.952 859.422H94.4124C93.7756 859.421 93.1556 859.217 92.6428 858.84C92.1299 858.462 91.7509 857.931 91.5608 857.323C91.9074 857.463 92.2776 857.534 92.6512 857.533H172.19C172.583 857.533 172.971 857.456 173.334 857.306C173.696 857.155 174.025 856.935 174.303 856.658C174.58 856.381 174.8 856.051 174.95 855.689C175.1 855.326 175.178 854.938 175.178 854.546V822.31C175.177 822.008 175.131 821.707 175.042 821.417C175.601 821.635 176.081 822.017 176.42 822.513C176.758 823.008 176.939 823.595 176.939 824.195Z" fill="black"/>
<path d="M574.283 716.111H412.699C408.951 716.111 405.912 719.15 405.912 722.898V933.28C405.912 937.028 408.951 940.066 412.699 940.066H574.283C578.031 940.066 581.069 937.028 581.069 933.28V722.898C581.069 719.15 578.031 716.111 574.283 716.111Z" fill="#2E0219" stroke="black" stroke-miterlimit="10"/>
<path d="M576.308 718.137C577.584 719.415 578.301 721.146 578.304 722.951V929.109C578.304 930.003 578.128 930.889 577.786 931.715C577.443 932.54 576.941 933.291 576.309 933.923C575.677 934.555 574.926 935.056 574.099 935.397C573.273 935.739 572.388 935.914 571.494 935.914H411.352C410.458 935.914 409.574 935.738 408.748 935.396C407.923 935.054 407.172 934.552 406.541 933.921C405.909 933.289 405.408 932.539 405.066 931.713C404.724 930.888 404.548 930.003 404.548 929.109V920.964C404.549 919.407 405.083 917.897 406.061 916.686L566.203 718.661C566.804 717.921 567.554 717.314 568.404 716.882C569.254 716.449 570.186 716.2 571.139 716.151C572.091 716.101 573.044 716.253 573.934 716.595C574.825 716.937 575.634 717.462 576.308 718.137Z" fill="white" stroke="black" stroke-miterlimit="10"/>
<path d="M565.959 706H407.872C404.124 706 401.086 709.038 401.086 712.787V923.169C401.086 926.917 404.124 929.955 407.872 929.955H565.959C569.707 929.955 572.745 926.917 572.745 923.169V712.787C572.745 709.038 569.707 706 565.959 706Z" fill="#2E0219" stroke="black" stroke-miterlimit="10"/>
<path opacity="0.25" d="M572.751 710.284V925.218C572.748 925.784 572.633 926.344 572.414 926.865C572.195 927.387 571.875 927.86 571.472 928.258C571.07 928.655 570.593 928.97 570.07 929.184C569.546 929.397 568.985 929.506 568.419 929.502H405.418C404.276 929.507 403.179 929.059 402.368 928.255C401.557 927.452 401.098 926.36 401.092 925.218V922.329H564.141C564.707 922.332 565.268 922.223 565.792 922.01C566.315 921.796 566.792 921.482 567.194 921.084C567.597 920.686 567.916 920.213 568.136 919.691C568.355 919.17 568.47 918.61 568.473 918.045V706.006C569.606 706.012 570.69 706.465 571.491 707.266C572.292 708.067 572.745 709.151 572.751 710.284Z" fill="black"/>
<path d="M544.509 739.593H429.328C426.939 739.593 425.003 741.53 425.003 743.919V790.602C425.003 792.991 426.939 794.928 429.328 794.928H544.509C546.898 794.928 548.834 792.991 548.834 790.602V743.919C548.834 741.53 546.898 739.593 544.509 739.593Z" fill="white" stroke="black" stroke-miterlimit="10"/>
<path opacity="0.25" d="M548.834 743.919V790.596C548.834 791.744 548.379 792.845 547.568 793.657C546.757 794.469 545.657 794.926 544.509 794.928H429.334C428.412 794.927 427.515 794.631 426.772 794.085C426.029 793.538 425.481 792.769 425.205 791.889C425.707 792.091 426.243 792.194 426.784 792.193H541.959C543.106 792.193 544.206 791.737 545.017 790.926C545.829 790.115 546.284 789.014 546.284 787.867V741.19C546.283 740.751 546.217 740.316 546.088 739.897C546.897 740.212 547.593 740.765 548.083 741.483C548.573 742.201 548.835 743.05 548.834 743.919V743.919Z" fill="black"/>
<path d="M486.559 869.168H380.259C377.794 869.168 375.795 871.167 375.795 873.633V1012.03C375.795 1014.5 377.794 1016.5 380.259 1016.5H486.559C489.024 1016.5 491.023 1014.5 491.023 1012.03V873.633C491.023 871.167 489.024 869.168 486.559 869.168Z" fill="#FF1053" stroke="black" stroke-miterlimit="10"/>
<path d="M487.889 870.498C488.728 871.338 489.2 872.478 489.2 873.666L489.197 1009.29C489.197 1010.48 488.726 1011.62 487.886 1012.46C487.047 1013.3 485.908 1013.77 484.721 1013.77L379.398 1013.77C378.21 1013.77 377.072 1013.3 376.232 1012.46C375.393 1011.62 374.921 1010.48 374.921 1009.29L374.921 1003.94C374.922 1002.91 375.273 1001.92 375.916 1001.12L481.256 870.839C481.652 870.354 482.145 869.957 482.703 869.675C483.261 869.392 483.872 869.229 484.497 869.197C485.122 869.165 485.747 869.264 486.331 869.488C486.915 869.712 487.446 870.056 487.889 870.498V870.498Z" fill="white" stroke="black" stroke-miterlimit="10"/>
<path d="M481.086 862.516H377.087C374.622 862.516 372.623 864.515 372.623 866.981V1005.38C372.623 1007.85 374.622 1009.85 377.087 1009.85H481.086C483.551 1009.85 485.55 1007.85 485.55 1005.38V866.981C485.55 864.515 483.551 862.516 481.086 862.516Z" fill="#FF1053" stroke="black" stroke-miterlimit="10"/>
<path opacity="0.25" d="M485.547 865.334L485.547 1006.73C485.541 1007.48 485.239 1008.19 484.706 1008.72C484.174 1009.24 483.455 1009.54 482.706 1009.54L375.467 1009.54C374.716 1009.55 373.994 1009.25 373.46 1008.73C372.926 1008.2 372.623 1007.48 372.618 1006.73L372.621 1004.82L479.882 1004.83C480.633 1004.83 481.355 1004.54 481.889 1004.01C482.424 1003.48 482.726 1002.76 482.731 1002.01L482.742 862.523C483.485 862.531 484.195 862.83 484.719 863.355C485.244 863.881 485.541 864.591 485.547 865.334V865.334Z" fill="black"/>
<path d="M466.971 884.615H391.198C389.627 884.615 388.353 885.889 388.353 887.46V918.172C388.353 919.743 389.627 921.017 391.198 921.017H466.971C468.542 921.017 469.816 919.743 469.816 918.172V887.46C469.816 885.889 468.542 884.615 466.971 884.615Z" fill="white" stroke="black" stroke-miterlimit="10"/>
<path opacity="0.25" d="M469.823 887.449L469.82 918.157C469.821 918.53 469.747 918.901 469.604 919.246C469.461 919.591 469.251 919.905 468.987 920.17C468.723 920.434 468.409 920.644 468.063 920.787C467.718 920.93 467.348 921.003 466.974 921.003L391.197 921.014C390.591 921.013 390.001 920.818 389.513 920.459C389.025 920.1 388.664 919.594 388.483 919.016C388.813 919.147 389.165 919.215 389.52 919.215L465.292 919.215C466.046 919.215 466.769 918.915 467.302 918.382C467.835 917.849 468.135 917.126 468.135 916.372L468.135 885.661C468.134 885.373 468.09 885.086 468.005 884.811C468.539 885.016 468.998 885.378 469.322 885.849C469.647 886.32 469.821 886.877 469.823 887.449V887.449Z" fill="black"/>
<path d="M55.0588 44.7741L32.516 104.575L74.4133 153.177L13.9395 127.719L-34.0774 172.031L-8.31178 111.675L-53.4319 63.6285L6.80492 87.7587L55.0588 44.7741Z" fill="#D9E5D6" stroke="black" stroke-miterlimit="10"/>
<path d="M128.097 61.3989L119.059 85.3745L135.857 104.86L111.612 94.6535L92.3605 112.419L102.691 88.2211L84.6008 68.9581L108.751 78.6325L128.097 61.3989Z" fill="#D9E5D6" stroke="black" stroke-miterlimit="10"/>
</g>
<defs>
<clipPath id="clip0_33_598">
<rect width="553" height="983" fill="white"/>
</clipPath>
</defs>
</svg>
