<svg width="1440" height="1024" viewBox="0 0 1440 1024" fill="none" xmlns="http://www.w3.org/2000/svg">
<g clip-path="url(#clip0_3_3)">
<rect width="1440" height="1024" fill="white"/>
<path d="M-407 723.334C-80.6674 344.355 137.116 292.608 277.704 319.61C474.844 357.517 530.607 552.442 705 543.905C941.867 532.304 970.036 166.531 1214.97 130.743C1457.79 95.2552 1731.22 410.852 1833.53 687.914C1880.31 814.618 1918.34 917.572 1880.72 1023.17C1751.35 1386.63 820.834 1515.01 154.903 1183.71C-125.31 1044.28 -306.723 849.351 -407 723.334Z" fill="#D9E5D6" stroke="black" stroke-miterlimit="10"/>
<path d="M336.847 411.792H-59.5142C-68.7081 411.792 -76.1613 419.242 -76.1613 428.431V944.265C-76.1613 953.455 -68.7081 960.905 -59.5142 960.905H336.847C346.041 960.905 353.494 953.455 353.494 944.265V428.431C353.494 419.242 346.041 411.792 336.847 411.792Z" fill="#5E2BFF" stroke="black" stroke-miterlimit="10"/>
<path d="M341.816 416.773C344.944 419.906 346.7 424.152 346.698 428.578V934.053C346.698 938.478 344.939 942.722 341.809 945.85C338.679 948.979 334.433 950.737 330.007 950.737H-62.8173C-67.2441 950.737 -71.4895 948.979 -74.6197 945.85C-77.7498 942.722 -79.5084 938.478 -79.5084 934.053V914.097C-79.5129 910.278 -78.202 906.574 -75.796 903.608L317.028 418.074C318.5 416.254 320.338 414.765 322.423 413.701C324.509 412.638 326.794 412.026 329.132 411.903C331.47 411.78 333.807 412.151 335.992 412.99C338.178 413.829 340.162 415.118 341.816 416.773V416.773Z" fill="white" stroke="black" stroke-miterlimit="10"/>
<path d="M316.429 387H-71.3528C-80.5468 387 -88 394.45 -88 403.64V919.474C-88 928.663 -80.5468 936.113 -71.3528 936.113H316.429C325.623 936.113 333.076 928.663 333.076 919.474V403.64C333.076 394.45 325.623 387 316.429 387Z" fill="#5E2BFF" stroke="black" stroke-miterlimit="10"/>
<path opacity="0.25" d="M333.076 397.504V924.499C333.068 925.885 332.787 927.257 332.249 928.534C331.711 929.812 330.926 930.971 329.939 931.946C328.952 932.92 327.783 933.69 326.498 934.212C325.213 934.734 323.837 934.998 322.45 934.988H-77.389C-78.7748 934.996 -80.1485 934.731 -81.4318 934.208C-82.715 933.685 -83.8826 932.914 -84.868 931.94C-85.8533 930.966 -86.637 929.808 -87.1744 928.531C-87.7118 927.254 -87.9923 925.884 -88 924.499V917.399H311.956C314.756 917.414 317.448 916.319 319.44 914.352C321.433 912.385 322.563 909.708 322.582 906.91V387.015C325.36 387.03 328.021 388.14 329.985 390.104C331.95 392.068 333.061 394.727 333.076 397.504V397.504Z" fill="black"/>
<path d="M263.812 469.352H-18.722C-24.5822 469.352 -29.3329 474.1 -29.3329 479.958V594.42C-29.3329 600.278 -24.5822 605.027 -18.722 605.027H263.812C269.673 605.027 274.423 600.278 274.423 594.42V479.958C274.423 474.1 269.673 469.352 263.812 469.352Z" fill="white" stroke="black" stroke-miterlimit="10"/>
<path opacity="0.25" d="M274.409 479.972V594.42C274.409 597.235 273.291 599.934 271.302 601.925C269.312 603.917 266.613 605.037 263.798 605.041H-18.722C-20.9838 605.039 -23.1858 604.315 -25.0074 602.975C-26.8291 601.634 -28.1755 599.748 -28.8506 597.591C-27.6195 598.086 -26.3044 598.339 -24.9775 598.336H257.542C260.357 598.336 263.056 597.218 265.045 595.229C267.035 593.24 268.153 590.542 268.153 587.729V473.281C268.15 472.207 267.988 471.138 267.671 470.111C269.657 470.885 271.363 472.241 272.565 474.001C273.768 475.76 274.41 477.842 274.409 479.972V479.972Z" fill="black"/>
<path d="M525.68 785.99H254.49C248.199 785.99 243.1 791.089 243.1 797.38V1150.47C243.1 1156.76 248.199 1161.86 254.49 1161.86H525.68C531.97 1161.86 537.07 1156.76 537.07 1150.47V797.38C537.07 791.089 531.97 785.99 525.68 785.99Z" fill="#0B3C49" stroke="black" stroke-miterlimit="10"/>
<path d="M529.08 789.39C531.22 791.534 532.421 794.44 532.42 797.47V1143.47C532.42 1144.97 532.125 1146.45 531.551 1147.84C530.977 1149.23 530.136 1150.48 529.075 1151.55C528.015 1152.61 526.756 1153.45 525.37 1154.02C523.985 1154.59 522.5 1154.89 521 1154.89H252.23C250.73 1154.89 249.245 1154.59 247.86 1154.02C246.474 1153.45 245.215 1152.61 244.155 1151.55C243.094 1150.48 242.253 1149.23 241.679 1147.84C241.105 1146.45 240.81 1144.97 240.81 1143.47V1129.81C240.805 1127.2 241.702 1124.66 243.35 1122.63L512.08 790.29C513.086 789.037 514.346 788.011 515.776 787.279C517.206 786.546 518.774 786.124 520.379 786.039C521.983 785.954 523.588 786.208 525.087 786.786C526.586 787.363 527.947 788.251 529.08 789.39V789.39Z" fill="white" stroke="black" stroke-miterlimit="10"/>
<path d="M511.71 769.02H246.39C240.099 769.02 235 774.119 235 780.41V1133.5C235 1139.79 240.099 1144.89 246.39 1144.89H511.71C518.001 1144.89 523.1 1139.79 523.1 1133.5V780.41C523.1 774.119 518.001 769.02 511.71 769.02Z" fill="#0B3C49" stroke="black" stroke-miterlimit="10"/>
<path opacity="0.25" d="M523.08 776.21V1136.94C523.075 1137.89 522.882 1138.83 522.514 1139.7C522.146 1140.58 521.609 1141.37 520.934 1142.04C520.258 1142.7 519.458 1143.23 518.579 1143.59C517.7 1143.95 516.759 1144.13 515.81 1144.12H242.26C241.312 1144.13 240.372 1143.94 239.494 1143.59C238.616 1143.23 237.817 1142.7 237.143 1142.03C236.469 1141.37 235.933 1140.57 235.565 1139.7C235.197 1138.83 235.005 1137.89 235 1136.94V1132.08H508.65C510.566 1132.09 512.408 1131.34 513.771 1129.99C515.134 1128.65 515.907 1126.82 515.92 1124.9V769C517.823 769.016 519.642 769.782 520.983 771.132C522.324 772.482 523.077 774.307 523.08 776.21Z" fill="black"/>
<path d="M475.71 825.39H282.4C278.39 825.39 275.14 828.64 275.14 832.65V911C275.14 915.01 278.39 918.26 282.4 918.26H475.71C479.72 918.26 482.97 915.01 482.97 911V832.65C482.97 828.64 479.72 825.39 475.71 825.39Z" fill="white" stroke="black" stroke-miterlimit="10"/>
<path opacity="0.25" d="M482.96 832.66V911C482.96 912.926 482.195 914.774 480.834 916.137C479.473 917.5 477.626 918.267 475.7 918.27H282.4C280.852 918.268 279.346 917.773 278.099 916.855C276.853 915.938 275.932 914.647 275.47 913.17C276.312 913.509 277.212 913.682 278.12 913.68H471.42C472.373 913.68 473.317 913.492 474.198 913.127C475.079 912.763 475.879 912.228 476.554 911.554C477.228 910.879 477.762 910.079 478.127 909.198C478.492 908.317 478.68 907.373 478.68 906.42V828.08C478.678 827.344 478.567 826.613 478.35 825.91C479.709 826.44 480.876 827.368 481.699 828.572C482.521 829.777 482.961 831.201 482.96 832.66Z" fill="black"/>
<path d="M1554.91 266.573H1162.22C1153.11 266.573 1145.73 273.957 1145.73 283.066V794.347C1145.73 803.456 1153.11 810.84 1162.22 810.84H1554.91C1564.02 810.84 1571.4 803.456 1571.4 794.347V283.066C1571.4 273.957 1564.02 266.573 1554.91 266.573Z" fill="#2E0219" stroke="black" stroke-miterlimit="10"/>
<path d="M1559.83 271.496C1562.93 274.601 1564.68 278.808 1564.68 283.196V784.211C1564.68 786.384 1564.26 788.535 1563.42 790.542C1562.59 792.55 1561.37 794.373 1559.84 795.909C1558.3 797.445 1556.47 798.663 1554.47 799.493C1552.46 800.323 1550.31 800.749 1548.13 800.747H1158.95C1156.78 800.747 1154.63 800.32 1152.62 799.488C1150.61 798.657 1148.79 797.439 1147.26 795.904C1145.72 794.368 1144.5 792.545 1143.67 790.539C1142.84 788.533 1142.41 786.383 1142.41 784.211V764.416C1142.42 760.632 1143.71 756.963 1146.09 754.02L1535.28 272.77C1536.74 270.97 1538.56 269.496 1540.62 268.445C1542.69 267.394 1544.96 266.789 1547.27 266.669C1549.59 266.549 1551.9 266.916 1554.07 267.748C1556.23 268.58 1558.19 269.857 1559.83 271.496Z" fill="white" stroke="black" stroke-miterlimit="10"/>
<path d="M1534.68 242H1150.49C1141.38 242 1134 249.384 1134 258.493V769.774C1134 778.883 1141.38 786.267 1150.49 786.267H1534.68C1543.79 786.267 1551.17 778.883 1551.17 769.774V258.493C1551.17 249.384 1543.79 242 1534.68 242Z" fill="#2E0219" stroke="black" stroke-miterlimit="10"/>
<path opacity="0.25" d="M1551.19 252.411V774.755C1551.18 776.13 1550.9 777.49 1550.37 778.757C1549.84 780.025 1549.06 781.175 1548.08 782.141C1547.1 783.108 1545.95 783.873 1544.67 784.392C1543.4 784.911 1542.04 785.174 1540.66 785.167H1144.53C1141.75 785.178 1139.09 784.088 1137.12 782.136C1135.15 780.184 1134.03 777.53 1134.01 774.755V767.733H1530.27C1531.64 767.74 1533 767.477 1534.28 766.958C1535.55 766.439 1536.71 765.674 1537.68 764.707C1538.66 763.74 1539.44 762.591 1539.97 761.323C1540.51 760.056 1540.78 758.696 1540.79 757.321V242.014C1543.54 242.03 1546.18 243.13 1548.13 245.076C1550.07 247.023 1551.17 249.659 1551.19 252.411Z" fill="black"/>
<path d="M1482.55 323.639H1202.64C1196.83 323.639 1192.12 328.346 1192.12 334.152V447.604C1192.12 453.41 1196.83 458.117 1202.64 458.117H1482.55C1488.36 458.117 1493.07 453.41 1493.07 447.604V334.152C1493.07 328.346 1488.36 323.639 1482.55 323.639Z" fill="white" stroke="black" stroke-miterlimit="10"/>
<path opacity="0.25" d="M1493.07 334.152V447.59C1493.07 450.379 1491.96 453.055 1489.99 455.029C1488.02 457.002 1485.34 458.113 1482.55 458.117H1202.65C1200.41 458.114 1198.23 457.397 1196.42 456.068C1194.62 454.74 1193.28 452.871 1192.62 450.732C1193.84 451.223 1195.14 451.473 1196.45 451.471H1476.36C1479.14 451.471 1481.82 450.363 1483.79 448.391C1485.76 446.42 1486.87 443.746 1486.87 440.958V327.52C1486.86 326.455 1486.7 325.396 1486.39 324.378C1488.36 325.145 1490.05 326.489 1491.24 328.233C1492.43 329.977 1493.07 332.04 1493.07 334.152V334.152Z" fill="black"/>
<path d="M1341.72 638.54H1083.39C1077.39 638.54 1072.54 643.397 1072.54 649.39V985.741C1072.54 991.733 1077.39 996.59 1083.39 996.59H1341.72C1347.71 996.59 1352.57 991.733 1352.57 985.741V649.39C1352.57 643.397 1347.71 638.54 1341.72 638.54Z" fill="#FF1053" stroke="black" stroke-miterlimit="10"/>
<path d="M1344.95 641.77C1346.99 643.813 1348.14 646.582 1348.14 649.47L1348.13 979.075C1348.13 981.96 1346.99 984.727 1344.95 986.767C1342.91 988.807 1340.14 989.953 1337.25 989.953L1081.29 989.953C1078.41 989.953 1075.64 988.807 1073.6 986.767C1071.56 984.727 1070.41 981.96 1070.41 979.075L1070.41 966.061C1070.42 963.573 1071.27 961.16 1072.83 959.224L1328.83 642.599C1329.8 641.421 1330.99 640.458 1332.35 639.771C1333.71 639.084 1335.19 638.689 1336.71 638.611C1338.23 638.533 1339.75 638.773 1341.17 639.318C1342.59 639.862 1343.88 640.697 1344.95 641.77V641.77Z" fill="white" stroke="black" stroke-miterlimit="10"/>
<path d="M1328.42 622.374H1075.68C1069.69 622.374 1064.83 627.232 1064.83 633.224V969.575C1064.83 975.567 1069.69 980.425 1075.68 980.425H1328.42C1334.41 980.425 1339.27 975.567 1339.27 969.575V633.224C1339.27 627.232 1334.41 622.374 1328.42 622.374Z" fill="#FF1053" stroke="black" stroke-miterlimit="10"/>
<path opacity="0.25" d="M1339.26 629.222L1339.26 972.844C1339.25 974.663 1338.51 976.403 1337.22 977.682C1335.92 978.96 1334.18 979.675 1332.36 979.667L1071.74 979.688C1069.92 979.698 1068.16 978.982 1066.86 977.699C1065.56 976.416 1064.83 974.67 1064.82 972.844L1064.82 968.217L1325.49 968.223C1327.32 968.233 1329.07 967.518 1330.37 966.235C1331.67 964.951 1332.41 963.205 1332.42 961.38L1332.45 622.391C1334.25 622.41 1335.97 623.136 1337.25 624.413C1338.52 625.69 1339.25 627.417 1339.26 629.222V629.222Z" fill="black"/>
<path d="M1294.12 676.078H1109.97C1106.15 676.078 1103.06 679.175 1103.06 682.994V757.63C1103.06 761.449 1106.15 764.546 1109.97 764.546H1294.12C1297.94 764.546 1301.03 761.449 1301.03 757.63V682.994C1301.03 679.175 1297.94 676.078 1294.12 676.078Z" fill="white" stroke="black" stroke-miterlimit="10"/>
<path opacity="0.25" d="M1301.05 682.967L1301.04 757.593C1301.04 758.502 1300.86 759.401 1300.52 760.241C1300.17 761.08 1299.66 761.843 1299.02 762.485C1298.37 763.128 1297.61 763.637 1296.77 763.985C1295.93 764.333 1295.03 764.511 1294.13 764.511L1109.97 764.538C1108.49 764.535 1107.06 764.062 1105.88 763.189C1104.69 762.316 1103.81 761.087 1103.37 759.681C1104.17 760.001 1105.03 760.166 1105.89 760.166L1290.04 760.166C1291.87 760.165 1293.63 759.437 1294.92 758.141C1296.22 756.845 1296.95 755.088 1296.95 753.255L1296.95 678.622C1296.95 677.921 1296.84 677.224 1296.63 676.554C1297.93 677.054 1299.04 677.933 1299.83 679.077C1300.62 680.222 1301.04 681.577 1301.05 682.967V682.967Z" fill="black"/>
<g clip-path="url(#clip1_3_3)">
<path d="M188.175 63.6956L165.632 123.496L207.529 172.098L147.055 146.64L99.0384 190.953L124.804 130.596L79.6839 82.55L139.921 106.68L188.175 63.6956Z" fill="#D9E5D6" stroke="black" stroke-miterlimit="10"/>
</g>
<g clip-path="url(#clip2_3_3)">
<path d="M261.213 80.3205L252.175 104.296L268.973 123.782L244.727 113.575L225.476 131.341L235.806 107.143L217.717 87.8796L241.867 97.554L261.213 80.3205Z" fill="#D9E5D6" stroke="black" stroke-miterlimit="10"/>
</g>
</g>
<defs>
<clipPath id="clip0_3_3">
<rect width="1440" height="1024" fill="white"/>
</clipPath>
<clipPath id="clip1_3_3">
<rect width="159" height="157" fill="white" transform="translate(123.072 18) rotate(35.009)"/>
</clipPath>
<clipPath id="clip2_3_3">
<rect width="63.7469" height="62.9451" fill="white" transform="translate(235.112 62) rotate(35.009)"/>
</clipPath>
</defs>
</svg>
