<svg width="282" height="62" viewBox="0 0 282 62" fill="none" xmlns="http://www.w3.org/2000/svg">
<path d="M86.2566 45C85.972 45 85.73 44.9146 85.5308 44.7438C85.36 44.5446 85.2746 44.3026 85.2746 44.018V23.7793C85.2746 23.4946 85.36 23.2669 85.5308 23.0961C85.73 22.8968 85.972 22.7972 86.2566 22.7972H88.178C88.4627 22.7972 88.6904 22.8968 88.8612 23.0961C89.0605 23.2669 89.1601 23.4946 89.1601 23.7793V25.2737C89.8148 24.3913 90.6403 23.6939 91.6365 23.1815C92.6328 22.6407 93.8284 22.3702 95.2232 22.3702C98.4397 22.3418 100.717 23.6512 102.055 26.2984C102.709 25.1029 103.663 24.1493 104.916 23.4377C106.168 22.726 107.591 22.3702 109.185 22.3702C110.665 22.3702 112.003 22.7118 113.199 23.395C114.423 24.0781 115.376 25.1171 116.06 26.5119C116.771 27.8782 117.127 29.6004 117.127 31.6783V44.018C117.127 44.3026 117.027 44.5446 116.828 44.7438C116.657 44.9146 116.43 45 116.145 45H114.138C113.854 45 113.612 44.9146 113.412 44.7438C113.242 44.5446 113.156 44.3026 113.156 44.018V32.0626C113.156 30.4686 112.928 29.2161 112.473 28.3052C112.018 27.3943 111.406 26.7539 110.637 26.3838C109.868 26.0138 109.029 25.8287 108.118 25.8287C107.378 25.8287 106.623 26.0138 105.855 26.3838C105.086 26.7539 104.446 27.3943 103.933 28.3052C103.45 29.2161 103.208 30.4686 103.208 32.0626V44.018C103.208 44.3026 103.108 44.5446 102.909 44.7438C102.738 44.9146 102.51 45 102.226 45H100.219C99.9341 45 99.6922 44.9146 99.4929 44.7438C99.3221 44.5446 99.2367 44.3026 99.2367 44.018V32.0626C99.2367 30.4686 98.9948 29.2161 98.5109 28.3052C98.027 27.3943 97.4007 26.7539 96.6322 26.3838C95.8636 26.0138 95.0524 25.8287 94.1984 25.8287C93.4583 25.8287 92.704 26.0138 91.9354 26.3838C91.1669 26.7539 90.5264 27.3943 90.014 28.3052C89.5301 29.2161 89.2882 30.4543 89.2882 32.0199V44.018C89.2882 44.3026 89.1885 44.5446 88.9893 44.7438C88.8185 44.9146 88.5908 45 88.3061 45H86.2566ZM126.437 53.1126C126.209 53.1126 126.01 53.0272 125.839 52.8564C125.669 52.6856 125.583 52.4863 125.583 52.2586C125.583 52.1447 125.597 52.0309 125.626 51.917C125.654 51.8032 125.711 51.6608 125.797 51.49L129.084 43.6764L120.929 24.4197C120.787 24.0781 120.716 23.8362 120.716 23.6939C120.716 23.4377 120.801 23.2242 120.972 23.0534C121.143 22.8826 121.356 22.7972 121.612 22.7972H123.705C123.989 22.7972 124.217 22.8684 124.388 23.0107C124.558 23.153 124.672 23.3238 124.729 23.5231L131.219 39.065L137.88 23.5231C137.966 23.3238 138.079 23.153 138.222 23.0107C138.393 22.8684 138.634 22.7972 138.948 22.7972H140.954C141.211 22.7972 141.424 22.8826 141.595 23.0534C141.766 23.2242 141.851 23.4234 141.851 23.6512C141.851 23.7935 141.78 24.0497 141.638 24.4197L129.511 52.3867C129.426 52.586 129.298 52.7567 129.127 52.8991C128.985 53.0414 128.757 53.1126 128.444 53.1126H126.437ZM147.606 45C147.293 45 147.051 44.9146 146.88 44.7438C146.709 44.5446 146.624 44.3026 146.624 44.018V16.0937C146.624 15.809 146.709 15.5813 146.88 15.4105C147.051 15.2113 147.293 15.1116 147.606 15.1116H149.869C150.153 15.1116 150.381 15.2113 150.552 15.4105C150.723 15.5813 150.808 15.809 150.808 16.0937V41.2853H165.027C165.34 41.2853 165.582 41.3849 165.752 41.5842C165.923 41.755 166.009 41.9969 166.009 42.31V44.018C166.009 44.3026 165.923 44.5446 165.752 44.7438C165.582 44.9146 165.34 45 165.027 45H147.606ZM171.11 45C170.825 45 170.583 44.9146 170.384 44.7438C170.213 44.5446 170.128 44.3026 170.128 44.018V23.7793C170.128 23.4946 170.213 23.2669 170.384 23.0961C170.583 22.8968 170.825 22.7972 171.11 22.7972H173.159C173.444 22.7972 173.672 22.8968 173.843 23.0961C174.013 23.2669 174.099 23.4946 174.099 23.7793V44.018C174.099 44.3026 174.013 44.5446 173.843 44.7438C173.672 44.9146 173.444 45 173.159 45H171.11ZM170.768 18.6555C170.484 18.6555 170.242 18.5701 170.042 18.3993C169.872 18.2001 169.786 17.9581 169.786 17.6735V15.3678C169.786 15.0832 169.872 14.8554 170.042 14.6846C170.242 14.4854 170.484 14.3858 170.768 14.3858H173.458C173.743 14.3858 173.971 14.4854 174.141 14.6846C174.341 14.8554 174.44 15.0832 174.44 15.3678V17.6735C174.44 17.9581 174.341 18.2001 174.141 18.3993C173.971 18.5701 173.743 18.6555 173.458 18.6555H170.768ZM191.442 45.427C189.734 45.427 188.311 45.1281 187.172 44.5303C186.034 43.9041 185.123 43.1355 184.44 42.2247V44.018C184.44 44.3026 184.34 44.5446 184.141 44.7438C183.97 44.9146 183.742 45 183.458 45H181.493C181.209 45 180.967 44.9146 180.768 44.7438C180.597 44.5446 180.511 44.3026 180.511 44.018V15.6667C180.511 15.382 180.597 15.1543 180.768 14.9835C180.967 14.7843 181.209 14.6846 181.493 14.6846H183.543C183.856 14.6846 184.098 14.7843 184.269 14.9835C184.44 15.1543 184.525 15.382 184.525 15.6667V25.4872C185.237 24.6047 186.148 23.8647 187.258 23.2669C188.396 22.6691 189.791 22.3702 191.442 22.3702C193.036 22.3702 194.388 22.6549 195.498 23.2242C196.637 23.765 197.562 24.5193 198.274 25.4872C199.014 26.455 199.569 27.5509 199.939 28.7749C200.309 29.9989 200.508 31.2798 200.537 32.6177C200.565 33.0731 200.579 33.5001 200.579 33.8986C200.579 34.2971 200.565 34.7241 200.537 35.1795C200.508 36.5459 200.309 37.841 199.939 39.065C199.569 40.289 199.014 41.3849 198.274 42.3527C197.562 43.2921 196.637 44.0464 195.498 44.6157C194.388 45.1566 193.036 45.427 191.442 45.427ZM190.545 41.9685C192.026 41.9685 193.178 41.6553 194.004 41.0291C194.858 40.3744 195.47 39.5347 195.84 38.51C196.21 37.4567 196.423 36.3324 196.48 35.1368C196.509 34.3113 196.509 33.4859 196.48 32.6604C196.423 31.4648 196.21 30.3547 195.84 29.33C195.47 28.2767 194.858 27.437 194.004 26.8108C193.178 26.1561 192.026 25.8287 190.545 25.8287C189.208 25.8287 188.097 26.1419 187.215 26.7681C186.333 27.3943 185.664 28.1913 185.208 29.1592C184.781 30.127 184.553 31.109 184.525 32.1053C184.497 32.5607 184.482 33.1158 184.482 33.7705C184.482 34.3967 184.497 34.9376 184.525 35.393C184.582 36.4462 184.81 37.4852 185.208 38.51C185.635 39.5062 186.276 40.3317 187.13 40.9864C188.012 41.6411 189.151 41.9685 190.545 41.9685ZM206.844 45C206.56 45 206.318 44.9146 206.118 44.7438C205.948 44.5446 205.862 44.3026 205.862 44.018V23.822C205.862 23.5373 205.948 23.2953 206.118 23.0961C206.318 22.8968 206.56 22.7972 206.844 22.7972H208.808C209.093 22.7972 209.335 22.8968 209.534 23.0961C209.733 23.2953 209.833 23.5373 209.833 23.822V25.7007C210.402 24.7328 211.185 24.007 212.181 23.5231C213.178 23.0392 214.373 22.7972 215.768 22.7972H217.476C217.761 22.7972 217.988 22.8968 218.159 23.0961C218.33 23.2669 218.415 23.4946 218.415 23.7793V25.5299C218.415 25.8145 218.33 26.0422 218.159 26.213C217.988 26.3838 217.761 26.4692 217.476 26.4692H214.914C213.377 26.4692 212.167 26.9247 211.285 27.8355C210.402 28.718 209.961 29.9277 209.961 31.4648V44.018C209.961 44.3026 209.862 44.5446 209.662 44.7438C209.463 44.9146 209.221 45 208.936 45H206.844ZM227.94 45.427C226.517 45.427 225.221 45.1423 224.054 44.573C222.887 44.0037 221.948 43.2352 221.236 42.2673C220.525 41.2995 220.169 40.2036 220.169 38.9796C220.169 37.0155 220.966 35.45 222.56 34.2829C224.154 33.1158 226.232 32.3473 228.794 31.9772L235.156 31.0806V29.8423C235.156 28.476 234.757 27.4086 233.96 26.64C233.192 25.8714 231.925 25.4872 230.16 25.4872C228.879 25.4872 227.84 25.7433 227.043 26.2557C226.275 26.7681 225.734 27.4228 225.421 28.2198C225.25 28.6468 224.951 28.8603 224.524 28.8603H222.603C222.29 28.8603 222.048 28.7749 221.877 28.6041C221.734 28.4048 221.663 28.1771 221.663 27.9209C221.663 27.494 221.82 26.9673 222.133 26.3411C222.475 25.7149 222.987 25.1029 223.67 24.5051C224.353 23.9073 225.221 23.4092 226.275 23.0107C227.356 22.5837 228.666 22.3702 230.203 22.3702C231.911 22.3702 233.348 22.598 234.515 23.0534C235.682 23.4804 236.593 24.0639 237.248 24.804C237.931 25.5441 238.415 26.3838 238.7 27.3232C239.013 28.2625 239.169 29.2161 239.169 30.1839V44.018C239.169 44.3026 239.07 44.5446 238.87 44.7438C238.7 44.9146 238.472 45 238.187 45H236.223C235.91 45 235.668 44.9146 235.497 44.7438C235.327 44.5446 235.241 44.3026 235.241 44.018V42.182C234.871 42.6943 234.373 43.2067 233.747 43.7191C233.121 44.203 232.338 44.6157 231.398 44.9573C230.459 45.2704 229.306 45.427 227.94 45.427ZM228.837 42.2247C230.004 42.2247 231.071 41.9827 232.039 41.4988C233.007 40.9864 233.761 40.2036 234.302 39.1504C234.871 38.0972 235.156 36.7736 235.156 35.1795V33.984L230.203 34.7099C228.182 34.9945 226.659 35.4784 225.634 36.1616C224.609 36.8163 224.097 37.656 224.097 38.6807C224.097 39.4778 224.325 40.1467 224.78 40.6875C225.264 41.1999 225.862 41.5842 226.574 41.8404C227.314 42.0966 228.068 42.2247 228.837 42.2247ZM246.29 45C246.005 45 245.763 44.9146 245.564 44.7438C245.393 44.5446 245.307 44.3026 245.307 44.018V23.822C245.307 23.5373 245.393 23.2953 245.564 23.0961C245.763 22.8968 246.005 22.7972 246.29 22.7972H248.254C248.538 22.7972 248.78 22.8968 248.979 23.0961C249.179 23.2953 249.278 23.5373 249.278 23.822V25.7007C249.848 24.7328 250.63 24.007 251.627 23.5231C252.623 23.0392 253.819 22.7972 255.213 22.7972H256.921C257.206 22.7972 257.434 22.8968 257.604 23.0961C257.775 23.2669 257.861 23.4946 257.861 23.7793V25.5299C257.861 25.8145 257.775 26.0422 257.604 26.213C257.434 26.3838 257.206 26.4692 256.921 26.4692H254.359C252.822 26.4692 251.613 26.9247 250.73 27.8355C249.848 28.718 249.406 29.9277 249.406 31.4648V44.018C249.406 44.3026 249.307 44.5446 249.108 44.7438C248.908 44.9146 248.666 45 248.382 45H246.29ZM265.413 53.1126C265.185 53.1126 264.986 53.0272 264.815 52.8564C264.645 52.6856 264.559 52.4863 264.559 52.2586C264.559 52.1447 264.573 52.0309 264.602 51.917C264.63 51.8032 264.687 51.6608 264.773 51.49L268.06 43.6764L259.905 24.4197C259.763 24.0781 259.692 23.8362 259.692 23.6939C259.692 23.4377 259.777 23.2242 259.948 23.0534C260.119 22.8826 260.332 22.7972 260.588 22.7972H262.68C262.965 22.7972 263.193 22.8684 263.364 23.0107C263.534 23.153 263.648 23.3238 263.705 23.5231L270.195 39.065L276.856 23.5231C276.941 23.3238 277.055 23.153 277.198 23.0107C277.368 22.8684 277.61 22.7972 277.923 22.7972H279.93C280.186 22.7972 280.4 22.8826 280.571 23.0534C280.742 23.2242 280.827 23.4234 280.827 23.6512C280.827 23.7935 280.756 24.0497 280.613 24.4197L268.487 52.3867C268.402 52.586 268.274 52.7567 268.103 52.8991C267.961 53.0414 267.733 53.1126 267.42 53.1126H265.413Z" fill="black"/>
<path d="M51.0762 2.35656V58.7235C51.0762 59.3485 50.8689 59.9479 50.4999 60.3898C50.1309 60.8318 49.6305 61.0801 49.1086 61.0801H25.9082C25.7422 61.0802 25.5808 61.0148 25.4491 60.8938C25.3174 60.7729 25.2227 60.6032 25.1797 60.4111C25.1368 60.2191 25.148 60.0155 25.2116 59.8318C25.2752 59.6482 25.3876 59.4949 25.5315 59.3957L33.265 54.0461L35.2304 52.6872C35.345 52.6081 35.4403 52.4941 35.5064 52.3568C35.5725 52.2195 35.6073 52.0637 35.6071 51.9052V0.903726C35.6071 0.785047 35.6266 0.667525 35.6645 0.55788C35.7025 0.448235 35.758 0.348617 35.8281 0.264698C35.8982 0.18078 35.9813 0.114207 36.0729 0.0687911C36.1644 0.0233748 36.2626 0 36.3617 0H49.1086C49.6304 0.00035057 50.1307 0.248744 50.4996 0.690609C50.8685 1.13247 51.0759 1.73167 51.0762 2.35656Z" fill="#2E0219"/>
<path d="M15.4658 0.903726V50.5291C15.4659 50.6876 15.4311 50.8433 15.365 50.9806C15.2988 51.1179 15.2037 51.2319 15.0891 51.3111L15.0272 51.3548L1.1313 60.961C1.01676 61.0401 0.886801 61.0816 0.754565 61.0814C0.655526 61.0815 0.55743 61.0583 0.465889 61.0131C0.374347 60.9678 0.291158 60.9013 0.221076 60.8175C0.150993 60.7337 0.0953932 60.6342 0.0574592 60.5246C0.0195252 60.415 -1.06465e-07 60.2976 0 60.179V2.35656C0.000292709 1.73167 0.207687 1.13247 0.576623 0.690609C0.945559 0.248744 1.44586 0.00035057 1.96762 0H14.7124C14.8114 -1.2751e-07 14.9095 0.0233828 15.001 0.0688154C15.0924 0.114248 15.1755 0.180835 15.2455 0.264771C15.3155 0.348707 15.371 0.448348 15.4088 0.557985C15.4466 0.667622 15.466 0.785109 15.4658 0.903726Z" fill="#2E0219"/>
<path d="M33.2705 14.3789V50.287C33.2706 50.4455 33.2358 50.6012 33.1697 50.7385C33.1036 50.8757 33.0084 50.9897 32.8938 51.069L32.4806 51.3548L18.5869 60.961C18.4719 61.0401 18.3416 61.0816 18.2091 61.0814H8.45937C8.29338 61.0816 8.13198 61.0161 8.00024 60.8951C7.86851 60.7742 7.77381 60.6045 7.73086 60.4125C7.68791 60.2204 7.69911 60.0168 7.76272 59.8332C7.82634 59.6495 7.9388 59.4962 8.08264 59.397L15.4659 54.2909L17.4313 52.932C17.5459 52.8528 17.641 52.7388 17.7072 52.6015C17.7733 52.4642 17.8081 52.3085 17.808 52.15V14.3789C17.808 14.2602 17.8275 14.1427 17.8655 14.033C17.9034 13.9234 17.959 13.8238 18.029 13.7398C18.0991 13.6559 18.1823 13.5894 18.2738 13.5439C18.3654 13.4985 18.4635 13.4752 18.5626 13.4752H32.5171C32.6161 13.4752 32.7142 13.4985 32.8057 13.544C32.8971 13.5894 32.9803 13.656 33.0502 13.7399C33.1202 13.8239 33.1757 13.9235 33.2135 14.0331C33.2513 14.1428 33.2707 14.2603 33.2705 14.3789Z" fill="#2E0219"/>
</svg>
