<svg width="58" height="58" viewBox="0 0 58 58" fill="none" xmlns="http://www.w3.org/2000/svg">
<path d="M57.74 2.22432V55.4282C57.74 56.0181 57.5056 56.5839 57.0885 57.001C56.6713 57.4182 56.1056 57.6525 55.5156 57.6525H29.2884C29.1007 57.6527 28.9183 57.5909 28.7693 57.4767C28.6204 57.3626 28.5134 57.2024 28.4648 57.0212C28.4162 56.8399 28.4289 56.6477 28.5008 56.4744C28.5727 56.301 28.6999 56.1563 28.8625 56.0627L37.6049 51.0133L39.8267 49.7306C39.9564 49.6559 40.064 49.5484 40.1388 49.4188C40.2135 49.2892 40.2528 49.1422 40.2526 48.9925V0.853013C40.2526 0.740994 40.2747 0.630067 40.3175 0.526575C40.3604 0.423083 40.4232 0.329054 40.5024 0.249844C40.5817 0.170635 40.6757 0.107799 40.7792 0.0649309C40.8827 0.0220631 40.9936 0 41.1056 0H55.5156C56.1055 0.000330898 56.671 0.234785 57.0881 0.651855C57.5052 1.06892 57.7396 1.6345 57.74 2.22432Z" fill="black"/>
<path d="M17.4836 0.853013V47.6937C17.4837 47.8433 17.4444 47.9902 17.3696 48.1198C17.2948 48.2494 17.1873 48.357 17.0577 48.4318L16.9878 48.473L1.27889 57.5401C1.14941 57.6148 1.0025 57.654 0.853011 57.6538C0.741051 57.6539 0.630156 57.632 0.526672 57.5893C0.423187 57.5466 0.329145 57.4839 0.249919 57.4048C0.170693 57.3256 0.107839 57.2317 0.0649557 57.1283C0.0220726 57.0248 -1.20355e-07 56.914 0 56.802V2.22432C0.000330898 1.6345 0.234784 1.06892 0.651853 0.651855C1.06892 0.234785 1.6345 0.000330898 2.22432 0H16.6318C16.7438 -1.20355e-07 16.8547 0.0220707 16.9581 0.0649538C17.0615 0.107837 17.1555 0.170687 17.2346 0.249913C17.3137 0.329139 17.3764 0.423189 17.4191 0.526674C17.4619 0.630158 17.4838 0.741053 17.4836 0.853013Z" fill="black"/>
<path d="M37.6111 13.572V47.4651C37.6112 47.6147 37.5719 47.7617 37.4971 47.8913C37.4224 48.0208 37.3148 48.1284 37.1853 48.2032L36.7182 48.473L21.0118 57.5401C20.8818 57.6148 20.7345 57.654 20.5847 57.6538H9.56295C9.3753 57.654 9.19285 57.5922 9.04392 57.478C8.895 57.3638 8.78795 57.2037 8.73939 57.0224C8.69084 56.8412 8.7035 56.6489 8.77542 56.4756C8.84733 56.3023 8.97446 56.1576 9.13708 56.0639L17.4836 51.2444L19.7054 49.9617C19.835 49.8869 19.9425 49.7793 20.0173 49.6497C20.0921 49.5202 20.1314 49.3732 20.1313 49.2236V13.572C20.1313 13.46 20.1534 13.3491 20.1962 13.2456C20.2391 13.1421 20.3019 13.048 20.3811 12.9688C20.4603 12.8896 20.5544 12.8268 20.6579 12.7839C20.7614 12.7411 20.8723 12.719 20.9843 12.719H36.7594C36.8713 12.719 36.9822 12.7411 37.0856 12.7839C37.189 12.8268 37.283 12.8897 37.3621 12.9689C37.4412 13.0481 37.5039 13.1422 37.5467 13.2457C37.5894 13.3491 37.6113 13.46 37.6111 13.572Z" fill="black"/>
</svg>
